<svg width="21" height="17" viewBox="0 0 21 17" fill="none" xmlns="http://www.w3.org/2000/svg">
<path fill-rule="evenodd" clip-rule="evenodd" d="M5 0H19C20.103 0 21 1.01263 21 2.25781V14.6758C21 15.921 20.103 16.9336 19 16.9336H11V14.6758H19V4.51562L12.6 9.93437C12.4268 10.0808 12.2163 10.1599 12 10.1599C11.7837 10.1599 11.5732 10.0808 11.4 9.93437L5 4.51562V7.90234H3V2.25781C3 1.01263 3.897 0 5 0ZM5.666 2.25781L12 7.62012L18.334 2.25781H5.666ZM7 9.5625H0V11.4219H7V9.5625ZM8 14.2109V12.3516H2V14.2109H8ZM9 17V15.1406H5V17H9Z" fill="white"/>
</svg>
