<svg width="20" height="21" viewBox="0 0 20 21" fill="none" xmlns="http://www.w3.org/2000/svg">
<path d="M18.089 10.8299V9.70425L19.5015 8.46826C19.7619 8.23876 19.9328 7.92459 19.9839 7.58129C20.0351 7.23799 19.9632 6.88766 19.7811 6.59221L18.0448 3.64938C17.9158 3.42592 17.7303 3.24031 17.5069 3.11118C17.2835 2.98205 17.0301 2.91394 16.772 2.91367C16.6121 2.91245 16.4531 2.93729 16.3012 2.98724L14.5134 3.59052C14.2048 3.38541 13.8828 3.20108 13.5496 3.03874L13.1744 1.18476C13.1072 0.846043 12.9229 0.541781 12.6539 0.325234C12.3849 0.108687 12.0483 -0.00634635 11.703 0.000270322H8.25991C7.91464 -0.00634635 7.57804 0.108687 7.30904 0.325234C7.04004 0.541781 6.85577 0.846043 6.78849 1.18476L6.41328 3.03874C6.07775 3.20104 5.75333 3.38537 5.44215 3.59052L3.69117 2.95781C3.53762 2.91781 3.37862 2.9029 3.22031 2.91367C2.96228 2.91394 2.70886 2.98205 2.48546 3.11118C2.26207 3.24031 2.07655 3.42592 1.94754 3.64938L0.211271 6.59221C0.0395469 6.88722 -0.0242649 7.23275 0.0307642 7.56964C0.0857933 7.90653 0.256239 8.2138 0.51291 8.43883L1.9034 9.7116V10.8372L0.51291 12.0732C0.248989 12.2998 0.0738812 12.6126 0.0186614 12.956C-0.0365585 13.2995 0.0316813 13.6514 0.211271 13.9493L1.94754 16.8921C2.07655 17.1156 2.26207 17.3012 2.48546 17.4303C2.70886 17.5594 2.96228 17.6275 3.22031 17.6278C3.38022 17.629 3.53925 17.6042 3.69117 17.5542L5.47893 16.951C5.78759 17.1561 6.10956 17.3404 6.44271 17.5027L6.81792 19.3567C6.8852 19.6954 7.06946 19.9997 7.33847 20.2162C7.60747 20.4328 7.94407 20.5478 8.28933 20.5412H11.7619C12.1071 20.5478 12.4437 20.4328 12.7127 20.2162C12.9817 19.9997 13.166 19.6954 13.2333 19.3567L13.6085 17.5027C13.944 17.3404 14.2684 17.1561 14.5796 16.951L16.36 17.5542C16.512 17.6042 16.671 17.629 16.8309 17.6278C17.0889 17.6275 17.3423 17.5594 17.5657 17.4303C17.7891 17.3012 17.9747 17.1156 18.1037 16.8921L19.7811 13.9493C19.9528 13.6543 20.0166 13.3087 19.9616 12.9718C19.9066 12.635 19.7361 12.3277 19.4794 12.1027L18.089 10.8299ZM16.772 16.1564L14.2486 15.303C13.6578 15.8033 12.9827 16.1945 12.2548 16.458L11.7324 19.0992H8.25991L7.73755 16.4875C7.0154 16.2164 6.34392 15.826 5.75114 15.3324L3.22031 16.1564L1.48404 13.2136L3.48517 11.4479C3.34913 10.6863 3.34913 9.90667 3.48517 9.14511L1.48404 7.32791L3.22031 4.38508L5.74379 5.2385C6.33451 4.73814 7.00965 4.34702 7.73755 4.08345L8.25991 1.44226H11.7324L12.2548 4.05402C12.9769 4.32507 13.6484 4.71552 14.2412 5.20908L16.772 4.38508L18.5083 7.32791L16.5072 9.09361C16.6432 9.85517 16.6432 10.6348 16.5072 11.3964L18.5083 13.2136L16.772 16.1564Z" fill="white"/>
<path d="M9.99628 14.6849C9.12322 14.6849 8.26977 14.426 7.54385 13.941C6.81794 13.456 6.25215 12.7665 5.91805 11.9599C5.58394 11.1533 5.49653 10.2658 5.66685 9.40951C5.83718 8.55323 6.25759 7.76669 6.87493 7.14935C7.49228 6.53201 8.27882 6.11159 9.1351 5.94127C9.99138 5.77094 10.8789 5.85836 11.6855 6.19246C12.4921 6.52657 13.1815 7.09235 13.6666 7.81827C14.1516 8.54419 14.4105 9.39764 14.4105 10.2707C14.4164 10.852 14.3063 11.4287 14.0865 11.9669C13.8668 12.5051 13.5419 12.9941 13.1308 13.4052C12.7197 13.8163 12.2307 14.1412 11.6925 14.3609C11.1543 14.5807 10.5776 14.6908 9.99628 14.6849V14.6849ZM9.99628 7.32786C9.60734 7.3188 9.22061 7.38873 8.85947 7.53341C8.49834 7.67809 8.1703 7.89453 7.89521 8.16962C7.62011 8.44472 7.40368 8.77275 7.259 9.13389C7.11431 9.49502 7.04439 9.88175 7.05345 10.2707C7.04439 10.6596 7.11431 11.0464 7.259 11.4075C7.40368 11.7686 7.62011 12.0967 7.89521 12.3718C8.1703 12.6469 8.49834 12.8633 8.85947 13.008C9.22061 13.1527 9.60734 13.2226 9.99628 13.2135C10.3852 13.2226 10.7719 13.1527 11.1331 13.008C11.4942 12.8633 11.8223 12.6469 12.0973 12.3718C12.3724 12.0967 12.5889 11.7686 12.7336 11.4075C12.8782 11.0464 12.9482 10.6596 12.9391 10.2707C12.9482 9.88175 12.8782 9.49502 12.7336 9.13389C12.5889 8.77275 12.3724 8.44472 12.0973 8.16962C11.8223 7.89453 11.4942 7.67809 11.1331 7.53341C10.7719 7.38873 10.3852 7.3188 9.99628 7.32786Z" fill="white"/>
</svg>
