<svg width="23" height="25" viewBox="0 0 23 25" fill="none" xmlns="http://www.w3.org/2000/svg">
<path d="M11.0444 12.5C14.2201 12.5 16.7944 9.92564 16.7944 6.75C16.7944 3.57436 14.2201 1 11.0444 1C7.8688 1 5.29443 3.57436 5.29443 6.75C5.29443 9.92564 7.8688 12.5 11.0444 12.5Z" stroke="white" stroke-width="2"/>
<path d="M16.7946 14.7999H17.1994C18.0401 14.8002 18.8519 15.1074 19.4821 15.6639C20.1123 16.2204 20.5175 16.9879 20.6218 17.8221L21.0715 21.4147C21.1119 21.7384 21.083 22.0669 20.9868 22.3786C20.8906 22.6902 20.7292 22.9778 20.5133 23.2223C20.2974 23.4668 20.032 23.6626 19.7346 23.7966C19.4373 23.9307 19.1149 24 18.7887 23.9999H3.3005C2.97434 24 2.65189 23.9307 2.35456 23.7966C2.05723 23.6626 1.79182 23.4668 1.57593 23.2223C1.36005 22.9778 1.19863 22.6902 1.1024 22.3786C1.00616 22.0669 0.977307 21.7384 1.01775 21.4147L1.46625 17.8221C1.57055 16.9875 1.97618 16.2197 2.60686 15.6631C3.23754 15.1066 4.04982 14.7996 4.89095 14.7999H5.2946" stroke="white" stroke-width="2" stroke-linecap="round" stroke-linejoin="round"/>
</svg>
