<svg width="20" height="21" viewBox="0 0 20 21" fill="none" xmlns="http://www.w3.org/2000/svg">
<path d="M17.1875 1.78504e-08C17.9002 -7.35303e-05 18.5863 0.227133 19.1072 0.635701C19.6281 1.04427 19.945 1.60373 19.9938 2.20102L20 2.36274V18.6373C20.0001 19.236 19.7296 19.8124 19.2433 20.25C18.7569 20.6876 18.091 20.9538 17.38 20.9948L17.1875 21H2.8125C2.09984 21.0001 1.41372 20.7729 0.892808 20.3643C0.371893 19.9557 0.0550276 19.3963 0.00625016 18.799L2.12484e-08 18.6373V2.36274C-8.75273e-05 1.76404 0.270369 1.18765 0.756711 0.750034C1.24305 0.312421 1.90901 0.0462279 2.62 0.00525066L2.8125 1.78504e-08H17.1875ZM17.1875 1.57516H2.8125C2.58595 1.57517 2.36707 1.64409 2.19634 1.76918C2.0256 1.89428 1.91456 2.06708 1.88375 2.25563L1.875 2.36274V18.6373C1.875 19.0363 2.2275 19.366 2.685 19.4175L2.8125 19.4248H17.1875C17.414 19.4248 17.6329 19.3559 17.8037 19.2308C17.9744 19.1057 18.0854 18.9329 18.1163 18.7444L18.125 18.6373V2.36274C18.125 2.17242 18.0429 1.98854 17.894 1.84511C17.7451 1.70168 17.5394 1.60839 17.315 1.58251L17.1875 1.57516ZM3.75 14.4379C3.75 14.229 3.84877 14.0287 4.02459 13.881C4.2004 13.7333 4.43886 13.6503 4.6875 13.6503H15.3125C15.5611 13.6503 15.7996 13.7333 15.9754 13.881C16.1512 14.0287 16.25 14.229 16.25 14.4379C16.25 14.6468 16.1512 14.8471 15.9754 14.9948C15.7996 15.1425 15.5611 15.2255 15.3125 15.2255H4.6875C4.43886 15.2255 4.2004 15.1425 4.02459 14.9948C3.84877 14.8471 3.75 14.6468 3.75 14.4379ZM3.75 6.03705C3.75 5.82818 3.84877 5.62785 4.02459 5.48015C4.2004 5.33245 4.43886 5.24948 4.6875 5.24948H15.3125C15.5611 5.24948 15.7996 5.33245 15.9754 5.48015C16.1512 5.62785 16.25 5.82818 16.25 6.03705C16.25 6.24593 16.1512 6.44626 15.9754 6.59396C15.7996 6.74166 15.5611 6.82463 15.3125 6.82463H4.6875C4.43886 6.82463 4.2004 6.74166 4.02459 6.59396C3.84877 6.44626 3.75 6.24593 3.75 6.03705ZM3.75 10.2375C3.75 10.0286 3.84877 9.82827 4.02459 9.68057C4.2004 9.53287 4.43886 9.4499 4.6875 9.4499H15.3125C15.5611 9.4499 15.7996 9.53287 15.9754 9.68057C16.1512 9.82827 16.25 10.0286 16.25 10.2375C16.25 10.4464 16.1512 10.6467 15.9754 10.7944C15.7996 10.9421 15.5611 11.0251 15.3125 11.0251H4.6875C4.43886 11.0251 4.2004 10.9421 4.02459 10.7944C3.84877 10.6467 3.75 10.4464 3.75 10.2375V10.2375Z" fill="white"/>
</svg>
