<svg width="20" height="22" viewBox="0 0 20 22" fill="none" xmlns="http://www.w3.org/2000/svg">
<path d="M17.3333 1.33333C17.687 1.33333 18.0261 1.47381 18.2761 1.72386C18.5262 1.97391 18.6667 2.31304 18.6667 2.66667V18.6667C18.6667 19.0203 18.5262 19.3594 18.2761 19.6095C18.0261 19.8595 17.687 20 17.3333 20H2.66667C2.31304 20 1.97391 19.8595 1.72386 19.6095C1.47381 19.3594 1.33333 19.0203 1.33333 18.6667V2.66667C1.33333 2.31304 1.47381 1.97391 1.72386 1.72386C1.97391 1.47381 2.31304 1.33333 2.66667 1.33333H17.3333ZM2.66667 0C1.95942 0 1.28115 0.280952 0.781049 0.781049C0.280952 1.28115 0 1.95942 0 2.66667V18.6667C0 19.3739 0.280952 20.0522 0.781049 20.5523C1.28115 21.0524 1.95942 21.3333 2.66667 21.3333H17.3333C18.0406 21.3333 18.7189 21.0524 19.219 20.5523C19.719 20.0522 20 19.3739 20 18.6667V2.66667C20 1.95942 19.719 1.28115 19.219 0.781049C18.7189 0.280952 18.0406 0 17.3333 0L2.66667 0Z" fill="white"/>
<path d="M8.00008 3.99996C8.00008 3.64634 8.14056 3.3072 8.39061 3.05715C8.64065 2.8071 8.97979 2.66663 9.33341 2.66663H10.6667C11.0204 2.66663 11.3595 2.8071 11.6096 3.05715C11.8596 3.3072 12.0001 3.64634 12.0001 3.99996V7.99996C12.0001 8.35358 11.8596 8.69272 11.6096 8.94277C11.3595 9.19282 11.0204 9.33329 10.6667 9.33329H9.33341C8.97979 9.33329 8.64065 9.19282 8.39061 8.94277C8.14056 8.69272 8.00008 8.35358 8.00008 7.99996V3.99996ZM2.66675 3.99996C2.66675 3.64634 2.80722 3.3072 3.05727 3.05715C3.30732 2.8071 3.64646 2.66663 4.00008 2.66663H5.33341C5.68704 2.66663 6.02618 2.8071 6.27622 3.05715C6.52627 3.3072 6.66675 3.64634 6.66675 3.99996V13.3333C6.66675 13.6869 6.52627 14.0261 6.27622 14.2761C6.02618 14.5262 5.68704 14.6666 5.33341 14.6666H4.00008C3.64646 14.6666 3.30732 14.5262 3.05727 14.2761C2.80722 14.0261 2.66675 13.6869 2.66675 13.3333V3.99996ZM13.3334 3.99996C13.3334 3.64634 13.4739 3.3072 13.7239 3.05715C13.974 2.8071 14.3131 2.66663 14.6667 2.66663H16.0001C16.3537 2.66663 16.6928 2.8071 16.9429 3.05715C17.1929 3.3072 17.3334 3.64634 17.3334 3.99996V17.3333C17.3334 17.6869 17.1929 18.0261 16.9429 18.2761C16.6928 18.5262 16.3537 18.6666 16.0001 18.6666H14.6667C14.3131 18.6666 13.974 18.5262 13.7239 18.2761C13.4739 18.0261 13.3334 17.6869 13.3334 17.3333V3.99996Z" fill="white"/>
</svg>
