<svg width="98" height="154" viewBox="0 0 98 154" fill="none" xmlns="http://www.w3.org/2000/svg">
<path d="M49.2397 2.69504L48.5 2.27581L47.7603 2.69504L27.5328 14.16L27.5225 14.1659L27.5122 14.1719L7.46952 25.957L6.73663 26.3879L6.72987 27.2381L6.54505 50.4881L6.54495 50.5L6.54505 50.5119L6.72987 73.7619L6.73663 74.6121L7.46952 75.043L27.5122 86.8281L27.5225 86.8341L27.5328 86.84L47.7603 98.305L48.5 98.7242L49.2397 98.305L69.4671 86.84L69.4775 86.8341L69.4878 86.8281L89.5305 75.043L90.2634 74.6121L90.2701 73.7619L90.455 50.5119L90.455 50.5L90.455 50.4881L90.2701 27.2381L90.2634 26.3879L89.5305 25.957L69.4878 14.1719L69.4775 14.1659L69.4671 14.16L49.2397 2.69504Z" stroke="#F6C927" stroke-width="3"/>
<path d="M41.2897 60.414L27 54.0032V48.4682L41.2897 42.0573V47.3471L28.6422 52.742V49.7293L41.2897 55.1242V60.414Z" fill="#F6C927"/>
<path d="M41.8754 67L51.3827 34H56.3956L46.8883 67H41.8754Z" fill="#F6C927"/>
<path d="M56.7103 60.414V55.1242L69.3578 49.7293V52.742L56.7103 47.3471V42.0573L71 48.4682V54.0032L56.7103 60.414Z" fill="#F6C927"/>
<path fill-rule="evenodd" clip-rule="evenodd" d="M27.0651 153.688C23.1678 153.688 19.5664 153.047 16.2611 151.764C12.9558 150.432 10.0944 148.582 7.6771 146.214C5.25976 143.846 3.36043 141.059 1.9791 137.852C0.872133 135.187 0.225142 132.318 0.0381256 129.244H5.45298C5.63125 131.627 6.15062 133.855 7.0111 135.928C8.14576 138.493 9.69976 140.763 11.6731 142.736C13.6464 144.66 15.9651 146.165 18.6291 147.25C21.2931 148.286 24.1791 148.804 27.2871 148.804C30.2471 148.804 33.0098 148.311 35.5751 147.324C38.1404 146.337 40.4838 144.759 42.6051 142.588L46.0831 146.066C43.8138 148.582 41.0264 150.481 37.7211 151.764C34.4158 153.047 30.8638 153.688 27.0651 153.688ZM1.9791 116.836C0.776656 119.731 0.116957 122.867 0 126.244H5.40624C5.5202 123.563 6.05516 121.093 7.0111 118.834C8.14576 116.219 9.69976 113.95 11.6731 112.026C13.6464 110.053 15.9651 108.548 18.6291 107.512C21.2931 106.427 24.1791 105.884 27.2871 105.884C30.2471 105.884 33.0098 106.377 35.5751 107.364C38.1404 108.301 40.4838 109.855 42.6051 112.026L46.0831 108.548C43.8138 106.032 41.0264 104.157 37.7211 102.924C34.4158 101.641 30.8884 101 27.1391 101C23.2418 101 19.6404 101.666 16.3351 102.998C13.0298 104.281 10.1438 106.106 7.6771 108.474C5.25976 110.842 3.36043 113.629 1.9791 116.836Z" fill="#F6C927"/>
<path fill-rule="evenodd" clip-rule="evenodd" d="M67.28 151.764C70.5854 153.047 74.1867 153.688 78.084 153.688C81.8827 153.688 85.4347 153.047 88.74 151.764C92.0453 150.481 94.8327 148.582 97.102 146.066L93.624 142.588C91.5027 144.759 89.1594 146.337 86.594 147.324C84.0287 148.311 81.266 148.804 78.306 148.804C75.198 148.804 72.312 148.286 69.648 147.25C66.984 146.165 64.6653 144.66 62.692 142.736C60.7187 140.763 59.1647 138.493 58.03 135.928C57.1806 133.882 56.6636 131.684 56.4789 129.336H51.0628C51.257 132.375 51.9021 135.214 52.998 137.852C54.3793 141.059 56.2787 143.846 58.696 146.214C61.1133 148.582 63.9747 150.432 67.28 151.764ZM51.0159 126.336C51.1239 122.924 51.7847 119.757 52.998 116.836C54.3793 113.629 56.2787 110.842 58.696 108.474C61.1627 106.106 64.0487 104.281 67.354 102.998C70.6594 101.666 74.2607 101 78.158 101C81.9074 101 85.4347 101.641 88.74 102.924C92.0453 104.157 94.8327 106.032 97.102 108.548L93.624 112.026C91.5027 109.855 89.1594 108.301 86.594 107.364C84.0287 106.377 81.266 105.884 78.306 105.884C75.198 105.884 72.312 106.427 69.648 107.512C66.984 108.548 64.6653 110.053 62.692 112.026C60.7187 113.95 59.1647 116.219 58.03 118.834C57.0632 121.119 56.527 123.62 56.4214 126.336H51.0159Z" fill="url(#paint0_linear_42_17)"/>
<defs>
<linearGradient id="paint0_linear_42_17" x1="51.0159" y1="100.93" x2="97.9626" y2="101.852" gradientUnits="userSpaceOnUse">
<stop offset="0.322917" stop-color="#F6C927"/>
<stop offset="1" stop-color="white"/>
</linearGradient>
</defs>
</svg>
