<svg width="20" height="18" viewBox="0 0 20 18" fill="none" xmlns="http://www.w3.org/2000/svg">
<path d="M19.2143 6.08C18.7123 4.89713 17.9846 3.82246 17.0714 2.91556C16.1605 2.00646 15.081 1.28197 13.8929 0.782222C12.6585 0.262222 11.3504 0 10 0C8.64955 0 7.34152 0.262222 6.10714 0.782222C4.91899 1.28197 3.83952 2.00646 2.92857 2.91556C2.01542 3.82246 1.28769 4.89713 0.785714 6.08C0.263393 7.30889 0 8.61111 0 9.95556C0 12.9044 1.30134 15.6822 3.5692 17.58L3.60714 17.6111C3.73661 17.7178 3.89955 17.7778 4.06696 17.7778H15.9353C16.1027 17.7778 16.2656 17.7178 16.3951 17.6111L16.433 17.58C18.6987 15.6822 20 12.9044 20 9.95556C20 8.61111 19.7344 7.30889 19.2143 6.08ZM15.567 16.0889H4.43304C3.57053 15.3147 2.88118 14.3685 2.40973 13.3119C1.93827 12.2553 1.69525 11.1117 1.69643 9.95556C1.69643 7.74667 2.56027 5.67111 4.12946 4.11111C5.69866 2.54889 7.78348 1.68889 10 1.68889C12.2188 1.68889 14.3036 2.54889 15.8705 4.11111C17.4397 5.67333 18.3036 7.74889 18.3036 9.95556C18.3036 12.3022 17.3103 14.5222 15.567 16.0889ZM12.4888 6.87778C12.4553 6.84469 12.41 6.82613 12.3627 6.82613C12.3155 6.82613 12.2702 6.84469 12.2366 6.87778L10.3504 8.75556C9.93304 8.64444 9.47098 8.75111 9.14286 9.07778C9.02664 9.19326 8.93443 9.33043 8.87152 9.48143C8.80861 9.63243 8.77623 9.7943 8.77623 9.95778C8.77623 10.1213 8.80861 10.2831 8.87152 10.4341C8.93443 10.5851 9.02664 10.7223 9.14286 10.8378C9.25886 10.9535 9.39664 11.0453 9.54831 11.1079C9.69999 11.1705 9.86258 11.2028 10.0268 11.2028C10.191 11.2028 10.3536 11.1705 10.5053 11.1079C10.6569 11.0453 10.7947 10.9535 10.9107 10.8378C11.0662 10.6835 11.178 10.4911 11.2348 10.28C11.2916 10.0689 11.2915 9.84658 11.2344 9.63555L13.1205 7.75778C13.1897 7.68889 13.1897 7.57556 13.1205 7.50667L12.4888 6.87778Z" fill="white"/>
</svg>
