<svg width="540" height="101" viewBox="0 0 540 101" fill="none" xmlns="http://www.w3.org/2000/svg">
<path d="M47.2397 2.69504L46.5 2.27581L45.7603 2.69504L25.5328 14.16L25.5225 14.1659L25.5122 14.1719L5.46952 25.957L4.73663 26.3879L4.72987 27.2381L4.54505 50.4881L4.54495 50.5L4.54505 50.5119L4.72987 73.7619L4.73663 74.6121L5.46952 75.043L25.5122 86.8281L25.5225 86.8341L25.5328 86.84L45.7603 98.305L46.5 98.7242L47.2397 98.305L67.4671 86.84L67.4775 86.8341L67.4878 86.8281L87.5305 75.043L88.2634 74.6121L88.2701 73.7619L88.455 50.5119L88.455 50.5L88.455 50.4881L88.2701 27.2381L88.2634 26.3879L87.5305 25.957L67.4878 14.1719L67.4775 14.1659L67.4671 14.16L47.2397 2.69504Z" stroke="#F6C927" stroke-width="3"/>
<path d="M39.2897 60.414L25 54.0032V48.4682L39.2897 42.0573V47.3471L26.6422 52.742V49.7293L39.2897 55.1242V60.414Z" fill="#F6C927"/>
<path d="M39.8754 67L49.3827 34H54.3956L44.8883 67H39.8754Z" fill="#F6C927"/>
<path d="M54.7103 60.414V55.1242L67.3578 49.7293V52.742L54.7103 47.3471V42.0573L69 48.4682V54.0032L54.7103 60.414Z" fill="#F6C927"/>
<path fill-rule="evenodd" clip-rule="evenodd" d="M223.783 72.762C226.743 74.4393 230.073 75.278 233.773 75.278C237.226 75.278 240.285 74.5133 242.949 72.984C245.337 71.5945 247.286 69.67 248.795 67.2104V74.908H253.827V20H248.573V43.446C247.085 41.1058 245.186 39.2845 242.875 37.982C240.211 36.4527 237.177 35.688 233.773 35.688C230.073 35.688 226.743 36.5267 223.783 38.204C220.872 39.832 218.578 42.126 216.901 45.086C215.223 48.046 214.385 51.4993 214.385 55.446C214.385 59.3433 215.223 62.7967 216.901 65.806C218.578 68.766 220.872 71.0847 223.783 72.762ZM241.543 68.766C239.372 69.9993 236.905 70.616 234.143 70.616C231.429 70.616 228.987 69.9993 226.817 68.766C224.646 67.4833 222.919 65.7073 221.637 63.438C220.354 61.1193 219.713 58.4553 219.713 55.446C219.713 52.3873 220.354 49.7233 221.637 47.454C222.919 45.1847 224.646 43.4333 226.817 42.2C228.987 40.9173 231.429 40.276 234.143 40.276C236.905 40.276 239.372 40.9173 241.543 42.2C243.763 43.4333 245.489 45.1847 246.723 47.454C248.005 49.7233 248.647 52.3873 248.647 55.446C248.647 58.4553 248.005 61.1193 246.723 63.438C245.489 65.7073 243.763 67.4833 241.543 68.766ZM144.065 75.352C140.168 75.352 136.566 74.7107 133.261 73.428C129.956 72.096 127.094 70.246 124.677 67.878C122.26 65.51 120.36 62.7227 118.979 59.516C117.872 56.8511 117.225 53.9817 117.038 50.908H122.453C122.631 53.291 123.151 55.519 124.011 57.592C125.146 60.1573 126.7 62.4267 128.673 64.4C130.646 66.324 132.965 67.8287 135.629 68.914C138.293 69.95 141.179 70.468 144.287 70.468C147.247 70.468 150.01 69.9747 152.575 68.988C155.14 68.0013 157.484 66.4227 159.605 64.252L163.083 67.73C160.814 70.246 158.026 72.1453 154.721 73.428C151.416 74.7107 147.864 75.352 144.065 75.352ZM118.979 38.5C117.777 41.3948 117.117 44.5308 117 47.908H122.406C122.52 45.2275 123.055 42.7575 124.011 40.498C125.146 37.8833 126.7 35.614 128.673 33.69C130.646 31.7167 132.965 30.212 135.629 29.176C138.293 28.0907 141.179 27.548 144.287 27.548C147.247 27.548 150.01 28.0413 152.575 29.028C155.14 29.9653 157.484 31.5193 159.605 33.69L163.083 30.212C160.814 27.696 158.026 25.8213 154.721 24.588C151.416 23.3053 147.888 22.664 144.139 22.664C140.242 22.664 136.64 23.33 133.335 24.662C130.03 25.9447 127.144 27.77 124.677 30.138C122.26 32.506 120.36 35.2933 118.979 38.5ZM187.748 75.278C183.999 75.278 180.62 74.4393 177.61 72.762C174.65 71.0353 172.307 68.692 170.58 65.732C168.854 62.7227 167.99 59.294 167.99 55.446C167.99 51.5487 168.854 48.12 170.58 45.16C172.307 42.2 174.65 39.8813 177.61 38.204C180.57 36.5267 183.95 35.688 187.748 35.688C191.596 35.688 195 36.5267 197.96 38.204C200.97 39.8813 203.313 42.2 204.99 45.16C206.717 48.12 207.58 51.5487 207.58 55.446C207.58 59.294 206.717 62.7227 204.99 65.732C203.313 68.692 200.97 71.0353 197.96 72.762C194.951 74.4393 191.547 75.278 187.748 75.278ZM187.748 70.616C190.56 70.616 193.052 69.9993 195.222 68.766C197.393 67.4833 199.095 65.7073 200.328 63.438C201.611 61.1193 202.252 58.4553 202.252 55.446C202.252 52.3873 201.611 49.7233 200.328 47.454C199.095 45.1847 197.393 43.4333 195.222 42.2C193.052 40.9173 190.585 40.276 187.822 40.276C185.06 40.276 182.593 40.9173 180.422 42.2C178.252 43.4333 176.525 45.1847 175.242 47.454C173.96 49.7233 173.318 52.3873 173.318 55.446C173.318 58.4553 173.96 61.1193 175.242 63.438C176.525 65.7073 178.252 67.4833 180.422 68.766C182.593 69.9993 185.035 70.616 187.748 70.616ZM284.961 75.278C280.916 75.278 277.364 74.4393 274.305 72.762C271.246 71.0353 268.854 68.692 267.127 65.732C265.4 62.7227 264.537 59.294 264.537 55.446C264.537 51.598 265.351 48.194 266.979 45.234C268.656 42.274 270.926 39.9553 273.787 38.278C276.698 36.5513 279.954 35.688 283.555 35.688C287.206 35.688 290.437 36.5267 293.249 38.204C296.11 39.832 298.355 42.1507 299.983 45.16C301.611 48.12 302.425 51.5487 302.425 55.446C302.425 55.6927 302.4 55.964 302.351 56.26V57.074H269.693C269.867 59.4629 270.491 61.6089 271.567 63.512C272.899 65.732 274.724 67.4833 277.043 68.766C279.411 69.9993 282.1 70.616 285.109 70.616C287.477 70.616 289.672 70.1967 291.695 69.358C293.767 68.5193 295.543 67.2367 297.023 65.51L299.983 68.914C298.256 70.986 296.086 72.5647 293.471 73.65C290.906 74.7353 288.069 75.278 284.961 75.278ZM271.419 47.232C270.475 49.0016 269.908 50.9749 269.716 53.152H297.402C297.213 50.9674 296.618 48.994 295.617 47.232C294.433 45.012 292.805 43.2853 290.733 42.052C288.661 40.8187 286.268 40.202 283.555 40.202C280.891 40.202 278.498 40.8187 276.377 42.052C274.256 43.2853 272.603 45.012 271.419 47.232ZM325.921 73.428C329.227 74.7107 332.828 75.352 336.725 75.352C340.524 75.352 344.076 74.7107 347.381 73.428C350.687 72.1453 353.474 70.246 355.743 67.73L352.265 64.252C350.144 66.4227 347.801 68.0013 345.235 68.988C342.67 69.9747 339.907 70.468 336.947 70.468C333.839 70.468 330.953 69.95 328.289 68.914C325.625 67.8287 323.307 66.324 321.333 64.4C319.36 62.4267 317.806 60.1573 316.671 57.592C315.811 55.519 315.291 53.291 315.113 50.908H309.698C309.885 53.9817 310.532 56.8511 311.639 59.516C313.021 62.7227 314.92 65.51 317.337 67.878C319.755 70.246 322.616 72.096 325.921 73.428ZM309.66 47.908C309.777 44.5308 310.437 41.3948 311.639 38.5C313.021 35.2933 314.92 32.506 317.337 30.138C319.804 27.77 322.69 25.9447 325.995 24.662C329.301 23.33 332.902 22.664 336.799 22.664C340.549 22.664 344.076 23.3053 347.381 24.588C350.687 25.8213 353.474 27.696 355.743 30.212L352.265 33.69C350.144 31.5193 347.801 29.9653 345.235 29.028C342.67 28.0413 339.907 27.548 336.947 27.548C333.839 27.548 330.953 28.0907 328.289 29.176C325.625 30.212 323.307 31.7167 321.333 33.69C319.36 35.614 317.806 37.8833 316.671 40.498C315.715 42.7575 315.18 45.2275 315.066 47.908H309.66ZM366.307 20H371.561V74.908H366.307V20ZM386.18 36.058V74.908H391.434V36.058H386.18ZM386.106 26.364C386.846 27.104 387.758 27.474 388.844 27.474C389.978 27.474 390.891 27.104 391.582 26.364C392.322 25.624 392.692 24.7113 392.692 23.626C392.692 22.59 392.322 21.7267 391.582 21.036C390.842 20.3453 389.929 20 388.844 20C387.758 20 386.846 20.37 386.106 21.11C385.366 21.8007 384.996 22.664 384.996 23.7C384.996 24.736 385.366 25.624 386.106 26.364ZM421.519 75.278C417.819 75.278 414.489 74.4393 411.529 72.762C408.618 71.0847 406.324 68.766 404.647 65.806C402.97 62.846 402.131 59.3927 402.131 55.446C402.131 51.5487 402.97 48.12 404.647 45.16C406.324 42.1507 408.618 39.832 411.529 38.204C414.489 36.5267 417.819 35.688 421.519 35.688C424.972 35.688 428.031 36.4527 430.695 37.982C433.083 39.3281 435.032 41.2283 436.541 43.6826V36.058H441.573V89.264H436.319V67.5014C434.831 69.812 432.932 71.6395 430.621 72.984C427.957 74.5133 424.923 75.278 421.519 75.278ZM421.889 70.616C424.652 70.616 427.118 69.9993 429.289 68.766C431.509 67.4833 433.236 65.7073 434.469 63.438C435.752 61.1193 436.393 58.4553 436.393 55.446C436.393 52.4367 435.752 49.7973 434.469 47.528C433.236 45.2587 431.509 43.4827 429.289 42.2C427.118 40.9173 424.652 40.276 421.889 40.276C419.176 40.276 416.734 40.9173 414.563 42.2C412.392 43.4827 410.666 45.2587 409.383 47.528C408.1 49.7973 407.459 52.4367 407.459 55.446C407.459 58.4553 408.1 61.1193 409.383 63.438C410.666 65.7073 412.392 67.4833 414.563 68.766C416.734 69.9993 419.176 70.616 421.889 70.616ZM463.605 73.428C466.072 74.6613 468.958 75.278 472.263 75.278C475.717 75.278 478.726 74.4887 481.291 72.91C483.388 71.6044 485.041 69.9022 486.249 67.8034V74.908H491.281V36.058H486.027V56.408C486.027 59.368 485.485 61.9087 484.399 64.03C483.363 66.1513 481.834 67.7793 479.811 68.914C477.838 69.9993 475.495 70.542 472.781 70.542C469.081 70.542 466.195 69.506 464.123 67.434C462.101 65.3127 461.089 62.18 461.089 58.036V36.058H455.835V58.628C455.835 62.328 456.501 65.4113 457.833 67.878C459.215 70.3447 461.139 72.1947 463.605 73.428ZM522.426 75.278C518.381 75.278 514.829 74.4393 511.77 72.762C508.711 71.0353 506.319 68.692 504.592 65.732C502.865 62.7227 502.002 59.294 502.002 55.446C502.002 51.598 502.816 48.194 504.444 45.234C506.121 42.274 508.391 39.9553 511.252 38.278C514.163 36.5513 517.419 35.688 521.02 35.688C524.671 35.688 527.902 36.5267 530.714 38.204C533.575 39.832 535.82 42.1507 537.448 45.16C539.076 48.12 539.89 51.5487 539.89 55.446C539.89 55.6927 539.865 55.964 539.816 56.26V57.074H507.158C507.332 59.4629 507.956 61.6089 509.032 63.512C510.364 65.732 512.189 67.4833 514.508 68.766C516.876 69.9993 519.565 70.616 522.574 70.616C524.942 70.616 527.137 70.1967 529.16 69.358C531.232 68.5193 533.008 67.2367 534.488 65.51L537.448 68.914C535.721 70.986 533.551 72.5647 530.936 73.65C528.371 74.7353 525.534 75.278 522.426 75.278ZM508.884 47.232C507.94 49.0016 507.373 50.9749 507.181 53.152H534.866C534.678 50.9674 534.083 48.994 533.082 47.232C531.898 45.012 530.27 43.2853 528.198 42.052C526.126 40.8187 523.733 40.202 521.02 40.202C518.356 40.202 515.963 40.8187 513.842 42.052C511.721 43.2853 510.068 45.012 508.884 47.232Z" fill="url(#paint0_linear_26_73)"/>
<defs>
<linearGradient id="paint0_linear_26_73" x1="117" y1="19.9079" x2="540" y2="77.9079" gradientUnits="userSpaceOnUse">
<stop offset="0.322917" stop-color="#F6C927"/>
<stop offset="1" stop-color="white"/>
</linearGradient>
</defs>
</svg>
